<?xml version="1.0" encoding="UTF-8"?>
<!-- Creator: CorelDRAW -->
<svg id="svg2" width="900" height="600" fill-rule="evenodd" image-rendering="optimizeQuality" shape-rendering="geometricPrecision" text-rendering="geometricPrecision" version="1.1" viewBox="0 0 900.87977 600" xml:space="preserve" xmlns="http://www.w3.org/2000/svg" xmlns:cc="http://creativecommons.org/ns#" xmlns:dc="http://purl.org/dc/elements/1.1/" xmlns:rdf="http://www.w3.org/1999/02/22-rdf-syntax-ns#"><metadata id="metadata166"><rdf:RDF><cc:Work rdf:about=""><dc:format>image/svg+xml</dc:format><dc:type rdf:resource="http://purl.org/dc/dcmitype/StillImage"/></cc:Work></rdf:RDF></metadata><defs id="defs4"><style id="style6" type="text/css">
    .str0 {stroke:#000000;stroke-linecap:square}
    .str3 {stroke:#EBA12B;stroke-width:5}
    .str4 {stroke:#84088C;stroke-width:6}
    .str1 {stroke:#F7DA4D;stroke-width:7;stroke-linecap:round}
    .str2 {stroke:#F7DA4E;stroke-width:7;stroke-linecap:round}
    .fil5 {fill:none}
    .fil3 {fill:#000000}
    .fil1 {fill:#003CC8}
    .fil4 {fill:#050000}
    .fil10 {fill:#590019}
    .fil7 {fill:#B5660A}
    .fil8 {fill:#EBA12B}
    .fil6 {fill:#EBB155}
    .fil2 {fill:#F7DA4D}
    .fil11 {fill:#F7DA4E}
    .fil9 {fill:#FFE087}
    .fil0 {fill:#FFFFFF}
   </style><clipPath id="clip1"><path id="path9" d="m512 478c74-64 74-210 0-274-74 64-74 210 0 274z"/></clipPath></defs><path id="path11" class="fil0" d="M 0,-0.29325664 H 900.87976 V 600.29326 H 0 Z" stroke-width=".880195"/><rect id="rect14" class="fil1" y="-.29325667" width="300.29324" height="600.58649" fill="#003cc8" stroke-width=".880625"/><rect id="rect16" class="fil1" x="600.58649" y="-.29325667" width="300.29324" height="600.58649" fill="#003cc8" stroke-width=".880625"/><g id="g619" transform="matrix(.87976541 0 0 .88062538 0 -.29289455)"><g id="g933" transform="matrix(1.0025745,0,0,1.0163188,-1.0844727,-5.5652623)"><path id="path140" d="m601.70955 173.23782c-15.60091 6.06702-22.94476 19.66757-25.27469 40.75856l-154.80742 289.5953a3.512627 3.512627 0 0 0 6.19355 3.31574l153.5562-287.31182c14.93802-12.89747 24.78892-27.6402 20.33236-46.35778z" color="#000000" fill="#f7da4d" style="text-decoration-line:none;text-indent:0;text-transform:none"/><path id="path144" d="m422.29045 173.23782c-4.45656 18.71758 5.39434 33.46031 20.33236 46.35777l153.5562 287.31183a3.512627 3.512627 0 1 0 6.19355-3.31574l-154.80743-289.59531c-2.32992-21.09098-9.67377-34.69153-25.27468-40.75855z" color="#000000" fill="#f7da4d" style="text-decoration-line:none;text-indent:0;text-transform:none"/><g fill="none"><path id="path148" class="fil2 str3" d="m512 478c74-64 74-210 0-274-74 64-74 210 0 274z" stroke="#eba12b" stroke-width="5"/><g id="g150" clip-path="url(#clip1)" stroke="#84088c" stroke-width="6.39257"><path id="path152" class="fil5 str4" d="m515.19629 204.19629v273.60742"/><path id="path154" class="fil5 str4" d="m531.11102 204.19629v273.60742"/><path id="path156" class="fil5 str4" d="m545.88898 204.19629v273.60742"/><path id="path158" class="fil5 str4" d="m561.80371 204.19629v273.60742"/></g><path id="path160" class="str3" d="m512 478c74-64 74-210 0-274-74 64-74 210 0 274z" stroke="#eba12b" stroke-width="5"/></g><path id="circle162" d="m529 341c0 9.38884-7.61116 17-17 17s-17-7.61116-17-17 7.61116-17 17-17 17 7.61116 17 17z" fill="#eba12b"/><path id="path3522" d="m512 200.6875-1.625 1.40625c-37.71143 32.61529-56.375 85.81895-56.375 138.90625s18.66357 106.29096 56.375 138.90625l1.625 1.40625 1.625-1.40625c37.71143-32.61529 56.375-85.81895 56.375-138.90625s-18.66357-106.29096-56.375-138.90625z" color="#000000" fill="#f7da4e" style="text-decoration-line:none;text-indent:0;text-transform:none"/><path id="path3314" d="m512 200.6875-1.625 1.40625c-37.71143 32.61529-56.375 85.81895-56.375 138.90625s18.66357 106.29096 56.375 138.90625l1.625 1.40625 1.625-1.40625c37.71143-32.61529 56.375-85.81895 56.375-138.90625s-18.66357-106.29096-56.375-138.90625zm0 6.71875c35.18593 31.51606 53 82.48022 53 133.59375s-17.81407 102.07769-53 133.59375c-35.18593-31.51606-53-82.48022-53-133.59375s17.81407-102.07769 53-133.59375z" color="#000000" fill="#eba12b" style="text-decoration-line:none;text-indent:0;text-transform:none"/><g id="g214" fill="#84088c"><path id="path3573" transform="matrix(1.0009775 0 0 1.0009775 0 -.33333333)" d="m556.875 284.34375v113.3125c0.0266-0.096 0.0673-0.18523 0.0937-0.28125 1.66067-6.03006 3.04741-12.18325 4.15625-18.40625s1.94472-12.53437 2.5-18.875 0.8125-12.7108 0.8125-19.09375-0.25722-12.75312-0.8125-19.09375-1.39116-12.652-2.5-18.875-2.49558-12.37619-4.15625-18.40625c-0.0264-0.096-0.0672-0.18529-0.0937-0.28125z"/><path id="path3571" transform="matrix(1.0009775 0 0 1.0009775 0 -.33333333)" d="m541.75 435.4375c0.64375-1.19106 1.32107-2.352 1.9375-3.5625 2.07722-4.0791 3.85847-8.37715 5.625-12.65625v-156.4375c-1.76653-4.2791-3.54778-8.57715-5.625-12.65625-0.61643-1.2105-1.29375-2.37144-1.9375-3.5625z"/><path id="path3569" transform="matrix(1.0009775 0 0 1.0009775 0 -.33333333)" d="m534.1875 233.90625c-1.53046-2.29083-3.1042-4.56003-4.75-6.75-0.90346-1.20218-1.87432-2.32993-2.8125-3.5v234.6875c0.93818-1.17007 1.90904-2.29782 2.8125-3.5 1.6458-2.18997 3.21954-4.45917 4.75-6.75z"/><path id="path3539" transform="matrix(1.0009775 0 0 1.0009775 0 -.33333333)" d="m519.0625 214.96875c-0.40492-0.42658-0.7772-0.89152-1.1875-1.3125-2.06128-2.11491-4.17803-4.15717-6.375-6.125v266.9375c2.19697-1.96783 4.31372-4.01009 6.375-6.125 0.4103-0.42098 0.78258-0.88592 1.1875-1.3125z"/></g><path id="path3316" d="m512 324c9.38884 0 17 7.61116 17 17s-7.61116 17-17 17-17-7.61116-17-17 7.61116-17 17-17z" fill="#eba12b"/></g><g id="g914" transform="matrix(.97881601 0 0 .97881601 5.1023625 19.140791)" fill-rule="evenodd" image-rendering="optimizeQuality" shape-rendering="geometricPrecision"><path id="path18" class="fil2 str0" d="m463 570c4-3 8-6 13-7 4-1 8 2 11-1 0 1 1 1 1 3 0-4 6-2 6-7 1 3 3 5 3 8s8 3 11 3c-2-1-6-1-7-3-1-1-1-5-2-1h1c-3 1-1-3-1-4 0-3-4-5 0-7 0 2 1 3 1 5 1-3-1-6 0-8 2 1 3 1 4 2-1-2-4-4-5-6 2 1 4 1 5 2 0 0 1 0 1-1v1c1-1 3-3 3-4 0-2-6-3-7-5 3 3 6 1 8 2-1-2-2-3-3-6l-1 1c0-1 0-3 1-4 0 1 1 1 2 2 0-2-1-3-1-5 0 0 1 0 1 1-1-2-1-3-2-4h2c-2 0-7-6-8-9 4 3 4 4 9 4s10 1 15 1c4 0 7 0 11 1 4 2 8 4 12 5 7 2 13 11 18 15 3 4 8 9 11 11 2 2 6 3 8 6h-2c4 1 7 1 9 5s-2 6-6 7c-14 7-6-8-14-11 0 4 0 15-4 17-1 1-7 0-8-1-3-3 0-3 0-6 2-7-11-5-15-6-3 0-5 0-7-1-2 0-3-2-5-3s-5 1-8-1c-2 9-18 7-25 7-3 0-6 5-10 5-3 0-9-1-12 1-4 2-4 10-10 10h-3c-3 0-2-1-5-2 0-1-2 0-2 0-1-1 0-3-2-3-2-1 0-6 2-6-2-1-3-1-4-2-5 5-19 3-15-5 3-5 8-4 11-8 0 1 1 2 1 3 0-2 1-3 1-4 1 2 0 4 0 6 1-1 1-2 2-4 1 3-2 5-1 8 0 0 0-1 1-1 1 7 3 6 10 4z" fill="#f7da4d" stroke="#000000" stroke-linecap="square"/><path id="path20" class="fil2 str0" d="m567 547c5 2 11 4 17 6 4 2 10 6 15 6 2 0 5-2 6-5 0 0-1-3-1-4 0-2 2-5 0-7 2 0 5 2 5 5 1-1 1.00613-4.05397 1-3-0.0465 7.98558 0 8-4 12-5 5-8 4-15 2-5-1-10-5-16-7-3-1-5-3-8-5z" fill="#f7da4d" stroke="#000000" stroke-linecap="square"/><path id="path22" class="fil3" d="m473 575c4-1 7-5 11-8-2 2-4 4-6 5 4 0 8-1 11-2 2 0 6-2 3-3 1-1 5-2 5-4 3 14-15 6-22 12-3 3-2 9-9 9-2 0-5 0-6-2-2-2-3 1-4-3-1-1-3-1-1-4 0 2 0 4 2 4 1-1 2-2 3-4 0 2-1 4-2 5 4 3 5 0 6-3 0 1-1 4 0 5 2 0 3-1 4 0 2 1 4-5 5-7z" fill="#000000"/><path id="path24" class="fil4" d="m453 566c0 3 0 6 4 6-1 1-3 0-4-1-3 3-5 2-8 2-5 0-7 0-8-5 1 4 5 4 5 0 2 5 4 5 5 0 2 3 2 4 4 2 1-1 2-2 2-4z" fill="#050000"/><g id="g226" fill="#000000"><path id="path26" class="fil3" d="m560 578c7 2 13-3 7-8 1 1 1 2 1 3-2 0-2 1-1 2h-4l2 2c-3 1-3-2-5-3s-2 3 0 4z"/><path id="path28" class="fil3" d="m577 574c3 3 18-3 13-7 1 3-3 6-5 2 0 1-1 3-1 4-1-2-1-4-3-5 0 2 3 5 0 6-3 0-2-4-3-5-1 1 0 3 1 4-2 0-3-2-3-4-1 2 0 2 0 4 0 1 2 2 1 1z"/><path id="path30" class="fil3" d="m607 556c5-1 3-9 3-11 0 2 0 2-1 3 0-3-3-5-5-5 4 3-4 12 3 13z"/><path id="path32" class="fil3" d="m557 567c0-2-2-3-3-4-1 5-10 2-12 0-1 6 11 4 15 4z"/></g><path id="path34" class="fil4" d="m440 569c-1 1-1 2-1 3 1-1 1-2 1-3z" fill="#050000"/><path id="path36" class="fil4" d="m445 570c-1 1-1 1 0 3v-3z" fill="#050000"/><path id="path38" class="fil5" d="m581 573c-1-1-1-2-1-3 0 1 1 2 1 3" fill="none"/><g id="g237" fill="#050000"><path id="path40" class="fil4" d="m588 570c-1-1-2-1-2-3 1 1 1 2 2 3z"/><path id="path42" class="fil4" d="m449 569v3c1-1 0-2 0-3z"/><path id="path44" class="fil4" d="m566 575c-1-1-2-1-3-2 1 0 2 1 3 2z"/><path id="path46" class="fil4" d="m455 578c1-2 1-3 3-3l-3 3z"/><path id="path48" class="fil4" d="m460 580c0-1 1-2 2-2-1 0-1 1-2 2z"/><path id="path50" class="fil4" d="m465 583c0-2 1-3 2-4 0 2-1 3-2 4z"/></g><path id="path52" class="fil2 str0" d="m479 483c1-1 1-2 1-3-1 1-1 1-2 1 1-1 2-3 1-5-1 2-1 2-2 3 0-4-3-1-4-4-2 1-3 2-5 3 0-1-1-1-1-2 0 4-5 3-8 0 2 2 4 3 4 6-2-1-4-1-5-3 1 2 1 3 1 5l-3-3v2c-2-1-4-1-6 0 2 1 2 2 4 2-3 1-5 1-7 3 1 0 1 1 2 1-2 1-4 1-5 3 2-2 5-1 7-1-2 0-5 1-7 3h2c-3 4-8 8-7 14 0-1 1-1 2-2-1 2-1 5-2 7 1-1 2-1 2-1-1 1-2 2-2 3h1c-2 2-3 3-3 5h3c-1 0-1 1-1 2l2-2h-1c1-1 2-2 3-2 1 3-3 5-4 8 4-2 2 7 2 9 1 0 2-1 2-2 0 3-2 5-3 8 2 0 3-1 4-2-1 1-3 3-3 5 2-2 5 6 5 8 0 3-2 7-1 10 2-1 3-2 4-4 0 1 0 2 1 3 0-2 1-3 1-4 1 2 0 4 0 6 1-1 1-2 2-4 1 3-2 5-1 8 0 0 0-1 1-1 0 3 0 6 4 6 1 0 5-1 6-2s4-3 5-3c3 0 6-3 10-4 3 0 6 2 9-1 0 1 1 1 1 3 0-4 6-2 6-7 1 3 3 5 3 8s8 3 11 3c-3-1-5-1-7-3-1-1-1-5-2-1h1c-4 1-1-2-1-4 0-1-2-3-2-5 2 1 3 1 3 3 1-3-1-6 0-8 2 1 3 1 4 2-1-2-4-4-5-6 2 1 4 1 5 2 0 0 1 0 1-1v1c1-1 3-3 3-4 0-2-6-3-7-5 3 3 6 1 8 2-1-2-2-3-3-6l-1 1c0-1 0-3 1-4 0 1 1 1 2 2 0-2-1-3-1-5 0 0 1 0 1 1-1-2-1-3-2-4h2c-3 0-4-7-8-9 1 2 2 4 4 4-1-5-5-8-8-12 4 3 8 6 11 9-1-1-3-6 0-5-1-2-2-4-3-7-1-1-7-1-8-1 3-1 7-2 10-1-3-3-8-3-11-6 3-1 6 0 9 1 0-1 0-1 2-2-3 0-5-1-8-2 2-1 3-3 4-4-7 0-6-3-7-9-1 0-2 1-4 1v-2c-1 0-2 1-3 1 1-1 0-2 1-3-2 2-5 2-5 4 0-2 0-4 2-5-3 0-4 5-7 4z" fill="#f7da4d" stroke="#000000" stroke-linecap="square"/><path id="path54" class="fil6" d="m493 498c-5 1 9 23 11 25 1 2 3 5 3 7s-4 5-5 7l-12 18c-5 6-13 7-20 8-4 1-6 2-9 0-4-3-7-7-9-10-5-5-9-15-6-22 3-6 4-10 6-17 0-2 0-5 1-7 2-3 6-5 6-8-1 0-2-1-1-2s4-1 5-1c-2-1-4-1-6-2 3-1 6-1 4-4 2 1 6 3 3 0 5 9-8 16-6 25s5 26 17 23c6-1 6-5 9-10 1-4 5-6 6-11 1-1 0-3 1-5 1-1 2-3 2-5 0-4-9-4-4-9 1-1 3-1 4 0z" fill="#ebb155"/><g id="g246" fill="#000000"><path id="path56" class="fil3" d="m464 492c-1 0-2-1-3-1 1 0 1 1 1 1-2 0-3 1-4 1 0 1 1 1 1 1h4c-1-1 0-1 1-2z"/><path id="path58" class="fil3" d="m457 572c-4 0-4-3-4-6-1 0-1 1-1 1-1-3 2-5 1-8-1 2-1 3-2 4 0-2 1-4 0-6 0 1-1 2-1 4-1-1-1-2-1-3-1 2-2 3-4 4-1-3 1-6 1-9 0-2-3-11-5-9 0-2 2-4 3-5-1 1-2 2-4 2 1-3 3-5 3-8 0 1-1 2-2 2 0-2 2-11-2-9 1-3 5-5 4-8-1 0-2 1-3 2h1l-2 2c0-1 0-2 1-2h-3c0-2 1-3 3-5h-1c0-1 1-2 2-3 0 0-1 0-2 1 1-2 1-5 2-7-1 1-2 1-2 2-1-6 4-10 7-14h-2c2-2 5-3 7-3 0-1 0-3 1-4-1 4 2 0 3 0 1 1 1 3 2 4h-4c0 2 2 2 4 3-2 0-2 0-4 1 0 1-1 3-1 3 1 1 3-2 5-2-1 2 0 2 0 3 1 0 2 0 3-1h-1c1-1 2-1 3-1 0 1 0 1 1 2-2 1-4 3-5 4-2 2-3 2-4 5 1-1 1-1 3-2 0 3 0 6-3 8 1 0 2 1 3 2-3 0-6 3-8 6 2-1 5-3 7-4 0 3-5 7-7 9 2-3 6-5 8-6-3 4-8 6-11 10 3-2 7-4 10-7-3 4-8 7-11 10 3-2 8-7 12-6-4 1-9 6-8 10 1-4 5-6 6-9 0 2 0 3-1 4-1 2 0 2 0 4 0 0-2 4 0 3 1-1 2-3 3-4-2 5 0 11-2 16 3-4 1-10 4-13 0 1 1 2 1 4v-3c3 1 2 4 2 7 0 6 4 11 2 17 3-6 3-13 2-19-1 3-1 6-1 9-2-5-1-9 2-13 0 6 1 12 3 17-1-3-2-11 1-13 1 2 0 4 0 6 1-3 3-4 3-7 0 3 1 7 1 10 0-3 3-3 4-5s1-5 2-7c2 5 5 13 1 18 2-2 4-6 4-8l-1 1c-1-3 0-7 0-10 2 3 1 8 2 11v-14c0 4 2 8 1 12 0-3 4-7 3-10 0 1 1 1 1 2-1-3-4-5-5-8 2 2 5 4 7 6 0-3-3-6-2-10 1 3 6 6 6 8 2-1 2-3 1-5 0 1 0 1-1 2-2-3-5-6-7-10 3 3 6 4 9 7-1-3-2-5-3-8 1 1 3 2 3 4 1 0 10 0 4-3v3c-1-4-6-5-8-8 2 2 6 3 8 4-1-2-4-4-6-6 0 0 0-2-1-2 0-1-2-2-2-3 1 0 3 0 3 1 0-2-1-4-2-6 3 4 7 7 8 12-2 0-3-2-4-4 4 2 5 9 8 9h-2c1 1 1 2 2 4 0-1-1-1-1-1 0 2 1 3 1 5-1-1-2-1-2-2-1 1-1 3-1 4l1-1c1 3 2 4 3 6-2-1-5 1-8-2 1 2 6 3 7 5 0 1-2 3-3 4v-1c0 1-1 1-1 1-1-1-3-1-5-2 1 2 4 4 5 6-1-1-2-1-4-2-1 2 1 5 0 8 0-2-1-2-3-3 0 2 2 4 2 5 0 2-3 5 1 4h-1c1-4 1 0 2 1 2 2 4 2 7 3-3 0-11 0-11-3s-2-5-3-8c0 5-6 3-6 7 0-2-1-2-1-3-2 2-4 1-6 1-3 0-5 0-8 2-6 2-10 5-16 7z"/><path id="path60" class="fil3" d="m481 533c1-1 2-2 2-3 0 0 1 1 1 2-3-1 1 7 1 9 0-3-2-5-4-6 0 2 0 3 1 4 0-1 0-2-1-3 2 2 2 4 1 5 0-1-1-2-2-3v5c-1-1-2-3-2-4-1 0-1 0-1 1l-1-1v3l1-1c0 1-1 3-2 4 1-2-1-4-1-6-1 3-1 5-2 8 0-2 1-6 0-8l-1 1v-1c-1 1-1 2-2 4 1-1 1-1 1-2 0 3-1 5-1 8-1-3 0-7-2-10l-1 1v-3c-1 2-2 4-2 6-1-3 1-6 1-9-1 0-1 0-1 1v-2c-2 2-3 3-4 6 0-3 2-5 3-7-1 1-2 1-2 2 0-2 1-5 1-7-1 0-1 0-2 1h1c-1 1-2 2-3 4 0-2 3-5 3-8l-1 1h1l-3 3c0-1 1-3 1-4-1 0-1 0-1-2 0-1 0-2 1-3 0 3 3 7 4 9 1 3 2 6 3 8 4 4 14 3 15-3z"/><path id="path62" class="fil3" d="m466 498c-1 3-3 5-5 7 3 1-3 5-3 7h1c-1 2 0 4 0 6h-1c0-2-1-3 0-5h-1c0-2 2-4 2-7l1 1 1-1c-1 0-2-1-3 0 1-1 1-2 2-3v1c2-1 2-3 2-3 1-1 3-1 4-3z"/><path id="path64" class="fil3" d="m485 526c4 2 4 5 4 8-1-2-3-5-4-8z"/></g><path id="path66" class="fil5" d="m493 523c2 0 3 3 3 5-1-2-2-3-3-5" fill="none"/><path id="path68" class="fil7" d="m453 498c-4 3-6 6-9 9 4-2 6-7 9-9z" fill="#b5660a"/><g id="g254" fill="none"><path id="path70" class="fil5" d="m453 502c-3 2-8 5-9 9 2-3 6-7 9-9"/><path id="path72" class="fil5" d="m455 505c-3 1-7 3-8 6 2-2 6-5 8-6"/><path id="path74" class="fil5" d="m449 517c-3 1-6 4-7 7 2-2 5-6 7-7"/><path id="path76" class="fil5" d="m451 521c-5 1-7 8-9 11 2-3 5-10 9-11"/></g><path id="path78" class="fil7" d="m454 535c-4 3-5 9-5 13 3-3 3-9 5-13z" fill="#b5660a"/><g id="g261" fill="none"><path id="path80" class="fil5" d="m461 546c-4 3-3 12-3 16 1-4 0-14 3-16"/><path id="path82" class="fil5" d="m452 511c-2 1-4 2-6 4 1-1 4-3 6-4"/><path id="path84" class="fil5" d="m495 539c3 1 3 7 5 9-1-3-2-7-5-9"/><path id="path86" class="fil5" d="m489 544c3 2 5 6 6 9-3-2-4-6-6-9"/></g><path id="path88" class="fil7" d="m475 548c4 1 3 7 3 10-2-3 0-7-3-10z" fill="#b5660a"/><path id="path90" class="fil8" d="m485 500c0-1-1-1-2-2v3l-3-3v1s1 1 1 0v3c-2-2-7-1-4-5-1 1-1 1-2 1-1-2-4 1-4 3 0-2 1-3 2-4-2 0-3-2-5-3 0-1-1-2-2-2 2-2 6 2 7 0 0-4-7-5-6-9l2 2c0-3-3-4-5-5 2 0 4-1 3-4 0 1 1 2 2 3 1-1 2-2 4-3-1 2 4 5 5 1 1 2-1 4 0 6 0-1 0-1 1-2-1 3 0 6 2 8 0-1 0-4-1-5 2-1 3-4 5-4-2 2-2 4-1 7l2-2c-1 1-1 3-1 4 1 0 1-1 1-1 1 1 1 1 1 3 1-2 3-3 5-2-2 1-3 1-4 3 1-1 3-1 4 0h4c-4 2-7 6-11 8z" fill="#eba12b"/><path id="path92" class="fil3" d="m493 495c3-2 9 3 13 3-2 1-2 1-2 2-3-1-6-2-9-1 0 1 1 1 1 1-3 1-6-3-9 1 3-1 4 2 6 2 0 0 0-1-1-1 2 0 3 1 5 3-1-1-1-2-1-3 3 0 7 1 10 3-3-1-7 0-10 1 1 0 7 0 8 1 1 3 2 5 3 7-3-1-1 4 0 5-3-2-5-5-8-7 1 1 3 2 5 2-2-2-4-2-6-4h2c0 1 0 1-1 1h4c-2-3-9-3-11-8v3s0-1-1-1c2 3 4 5 5 9-3-5-5-2-1 2h-2c1 2 3 3 4 5-2-1-4-3-5-4 0 2 0 4-1 6v-3c-2 1-2 2-2 4h-4c2-1 3-2 3-5v2c1-2 4-8 0-7 1-2 1-3 1-4 0 1-1 1-1 1 0-2-1-3-1-5l1-1c1 0 2 2 3 4v-2l1 1c-1-2-5-4-5-7-1-3 3-5 6-6z" fill="#000000"/><path id="path94" class="fil5" d="m490 497c-1 0-2 0-3 1v-2c-1 4-5-4-8-4 1 1 2 1 2 2h-2l3 3v-2c1 2 4 2 3 5 2-1 3-2 5-3" fill="none"/><path id="path96" class="fil3" d="m470 531c-1 1-3 2-4 1 1 2 5-1 7-1 1 0 7 3 7 1-1 1-6-1-6-3-1-3 6-4 5-6-1 2-3 1-4-1 0 1-1 1 0 2-2 0-5-1-7-1 1 4 5 3 5 8h-3z" fill="#000000"/><path id="path98" class="fil9" d="m466 499c-1 3-5 6-4 9 0 3 3 2 5 5 0-1 0-1-1-2 2 0 1-1 2 0 0-4 3-4 2-8 0-1-1-8-4-4z" fill="#ffe087"/><path id="path100" class="fil10" d="m468 522c-2 0-2 3 0 3-3 2-1-5-1-7 0 1-1 3-2 4 1-2 0-3 1-4 0-1 2-3 2-4 0-3-3-3-5-4l-1-1c1-1 2-1 4-1-1-1-1-2 0-3 0 1 1 2 1 3 0-1 1-1 2-2-3 2 0 5 0 7s-3 7-1 9z" fill="#590019"/><path id="path102" class="fil9" d="m476 500v3l-1-1v4c1-1 1-1 2-3v2h2c0-1 0-1-1-1h3c-2 2 0 2-1 4 0-1-1-1-1-2-2 0-3 2-4 4 0-1 1-1 1-1-1 1-2 2-3 2 0 0 0-1-1-1 0 1-1 1-1 2-1-1-1-2-2-3h2c2-1 2-4 0-6 1 0 2-2 3-4 0 2 1 2 2 1z" fill="#ffe087"/><path id="path104" class="fil9" d="m487 504c-2-1-3-2-3-3 0 1-1 1-1 2 0-1-1-2-1-2-1 2-2 1-4 2 1 0 2 1 3 0-1 2 1 3 0 5 0 2-2 0-2 3 0 5 6-1 8-1-2-2-2-3-3-4 1 0 1 1 2 1 0-1 0-2 1-3z" fill="#ffe087"/><path id="path106" class="fil10" d="m487 510c-3 0-6-2-8 1-1 3 2 5 0 8 2 0 3-2 3-4 0 1-1 2-1 2-2-3 1-7 6-7z" fill="#590019"/><g id="g277" fill="none"><path id="path108" class="fil5" d="m467 511c0-5-5 1 0 0"/><path id="path110" class="fil5" d="m480 512c0-2 1-2 3-2 0 1-1 2-3 2"/><path id="path112" class="fil5" d="m466 510c2-2-2-2 0 0"/><path id="path114" class="fil5" d="m481 512c3-3-2-3 0 0"/></g><path id="path116" class="fil3" d="m484 510c-6-2-2 6-1 0 0 2-3 2-4 5 0-3 0-7 5-5z" fill="#000000"/><path id="path118" class="fil3" d="m464 509c1-1 3 0 4 2-2 0-3 0-4-2 1 2 3 2 4 4 0-2-1-7-4-4z" fill="#000000"/><g id="g284" fill="#ffe087"><path id="path120" class="fil9" d="m462 523c0 2 1 3 2 4 0 2-1 4 1 5 2 2 5-2 7-2 1-3-2-2-3-4 2 1 2 4-1 4s-5-5-6-7z"/><path id="path122" class="fil9" d="m480 525c-4 1-8 3-4 5 4 3 8 1 8-5 0 1-3 5-5 5-3-1 0-4 1-5z"/><path id="path124" class="fil9" d="m480 534c-2 0-3 0-4-1 0 1 0 1 1 2-1-1-2-1-2-3v3l-2-2c0 1-1 2-2 3 1-2 0-3 0-4-1 1-1 2-2 3 0-1 0-1 1-2-1 1-3 1-4 1 1 6 12 5 14 0z"/></g><path id="path126" class="fil3" d="m480 491c-4-2-5-6-5-10-3 2-1 7 1 9-2-1-3-3-4-5 0 2 1 5 2 7-1-2-2-4-3-5 0 2 0 5 1 7-1-1-2-2-4-2 3 4 4 3 7 2 4 0 5 1 8 3-1-1-2-2-2-4 2 1 3 2 4 3 0-2 0-4 2-4-3 0-4-3-4-5-1 2 0 3 0 5-2-1-4-5-4-6 0 2 0 4 1 5z" fill="#000000"/><path id="path128" class="fil8" d="m536 539c2 3 11 9 9 14-1 3-9 5-11 8-2 2-7 0-9 0 2-2 3-5 3-7-1 3-5 3-6 6-1 2 0 3-3 5-2 1-5 2-8 3-4 1-9 0-13-2-2-1 0-5-1-7 10 4 23 1 30-7 1 1 3 3 2 5 3 0 10-2 11-6s-4-8-4-12z" fill="#eba12b"/><path id="path130" class="fil3" d="m542 537c-2 1-4 1-6 0 1 1 1 3 2 4 1 3 3 5 5 8 4 7-6 8-10 12 8-6 16-4 25-5 3-1 5 3 8 3 2 0 5 1 5 3 2-5-11-6-14-8-2-1-8-13-9-9-3-3-6-4-10-6 1 0 3-2 4-2z" fill="#000000"/><path id="path132" class="fil3" d="m524 561c2-2 3-5 4-8 1 3-1 6 2 5-1 2-7 5-6 3z" fill="#000000"/><g id="g293" fill="#ffe087"><path id="path134" class="fil9" d="m505 522c7 2 16 2 22 2 8 0 14 5 21 6 7 2 15 13 20 19 3 3 5 6 8 7 2 1 6 2 5 5 2 0 4 1 5 2-5-1-10-3-14-7-6-4-11-12-16-17-6-6-15-10-23-11-7-1-16 2-24 1 1-2-2-5-4-7z"/><path id="path136" class="fil9" d="m485 564h-4c-3 0-7 2-9 3-5 2-10 6-14 6 0 0 1 0 1 1l-1 2c1-1 3-2 5-2-1 1-1 2-2 3 2-1 3-2 5-3v2c3-4 7-7 11-8 3-2 6-1 8-4z"/><path id="path138" class="fil9" d="m448 561c-4 2-8 2-10 7 2-1 3-3 5-3v4c1-3 5-4 5-8z"/></g><path id="path3172" class="fil2 str0" d="m463 570c4-3 8-6 13-7 4-1 8 2 11-1 0 1 1 1 1 3 0-4 6-2 6-7 1 3 3 5 3 8s8.08354 3.70234 11 3c11.6748-2.81152-6-1-7-3-1-1-1-5-2-1h1c-3 1-1-3-1-4 0-3-4-5 0-7 0 2 1 3 1 5 1-3-1-6 0-8 2 1 3 1 4 2-1-2-4-4-5-6 2 1 4 1 5 2 0 0 1 0 1-1v1c1-1 3-3 3-4 0-2-6-3-7-5 3 3 6 1 8 2-1-2-2-3-3-6l-1 1c0-1 0-3 1-4 0 1 1 1 2 2 0-2-1-3-1-5 0 0 1 0 1 1-1-2-1-3-2-4h2c-2 0-7-6-8-9 4 3 4 4 9 4s10 1 15 1c4 0 7 0 11 1 4 2 8 4 12 5 7 2 13 11 18 15 3 4 8 9 11 11 2 2 6 3 8 6h-2c4 1 7 1 9 5s-2 6-6 7c-14 7-6-8-14-11 0 4 0 15-4 17-1 1-7 0-8-1-3-3 0-3 0-6 2-7-11-5-15-6-3 0-5 0-7-1-2 0-3-2-5-3s-5 1-8-1c-2 9-18 7-25 7-3 0-6 5-10 5-3 0-9-1-12 1-4 2-4 10-10 10h-3c-3 0-2-1-5-2 0-1-2 0-2 0-1-1 0-3-2-3-2-1 0-6 2-6-2-1-3-1-4-2-5 5-19 3-15-5 3-5 8-4 11-8 0 1 1 2 1 3 0-2 1-3 1-4 1 2 0 4 0 6 1-1 1-2 2-4 1 3-2 5-1 8 0 0 0-1 1-1 1 7 3 6 10 4z" fill="#f7da4d" stroke="#000000" stroke-linecap="square"/><path id="path3174" class="fil2 str0" d="m567.46376 547.01283c5 2 10.53624 3.98717 16.53624 5.98717 4 2 10 6 15 6 2 0 5-2 6-5 0 0-1-3-1-4 0-2 2-5 0-7 2 0 5 2 5 5 1-1 1.08702-4.0504 1-3-0.77192 9.31817-0.74799 9.31311-4 12-3.88718 3.21169-8 4-15 2-5-1-10-5-16-7-3-1-4.53624-2.98717-7.53624-4.98717z" fill="#f7da4d" stroke="#000000" stroke-linecap="square"/><path id="path3176" class="fil3" d="m473 575c4-1 7-5 11-8-2 2-4 4-6 5 4 0 8-1 11-2 2 0 6-2 3-3 1-1 5-2 5-4 0.41446 1.93414 1.43766 3.84659 0.57787 4.78477-7.80815 8.52-17.15968 3.2182-22.19189 7.53153-3 3-2.38597 8.6837-9.38597 8.6837-2 0-5.01082 0.38987-6.01082-1.61013-2-2-3.30955 1.03615-4.30955-2.96385-1.00001-1-2.67964-1.42602-0.67964-4.42602 0 2 0 4 2 4 1-1 2-2 3-4 0 2-1 4-2 5 4 3 5 0 6-3 0 1-1 4 0 5 2 0 3-1 4 0 2 1 4-5 5-7z" fill="#000000"/><path id="path3178" class="fil4" d="m453 566c0 3 0 6 4 6-1 1-3 0-4-1-3 3-5 2.85194-8 2.85194-5 0-7-0.85194-8-5.85194 1 4 5 4 5 0 2 5 4 5 5 0 2 3 2 4 4 2 1-1 2-2 2-4z" fill="#050000"/><g id="g303" fill="#000000"><path id="path3180" class="fil3" d="m560 578.14863c7.83117 4.35267 13-3.14863 7-8.14863 1 1 1 2 1 3-2 0-2 1-1 2h-4l2 2c-3 1-3-2-5-3s-3 2.96411 0 4.14863z"/><path id="path3182" class="fil3" d="m577 574c3 3 18-3 13-7 1 3-3 6-5 2 0 1-1 3-1 4-1-2-1-4-3-5 0 2 3 5 0 6-3 0-2-4-3-5-1 1 0 3 1 4-2 0-3-2-3-4-1 2 0 2 0 4 0 1 2 2 1 1z"/><path id="path3184" class="fil3" d="m607 556c5-1 3-9 3-11 0 2 0 2-1 3 0-3-3-5-5-5 4 3-4.23272 11.96675 3 13z"/><path id="path3186" class="fil3" d="m557 567c0-2-2-3-3-4-1 5-10 2-12 0-1 6 11 4 15 4z"/></g><path id="path3188" class="fil4" d="m440 569c-1 1-1 2-1 3 1-1 1-2 1-3z" fill="#050000"/><path id="path3190" class="fil4" d="m445 570c-1 1-1 1 0 3v-3z" fill="#050000"/><path id="path3192" class="fil5" d="m581 573c-1-1-1-2-1-3 0 1 1 2 1 3" fill="none"/><g id="g314" fill="#050000"><path id="path3194" class="fil4" d="m588 570c-1-1-2-1-2-3 1 1 1 2 2 3z"/><path id="path3196" class="fil4" d="m449 569v3c1-1 0-2 0-3z"/><path id="path3198" class="fil4" d="m566 575c-1-1-2-1-3-2 1 0 2 1 3 2z"/><path id="path3200" class="fil4" d="m455 578c1-2 1-3 3-3l-3 3z"/><path id="path3202" class="fil4" d="m460 580c0-1 1-2 2-2-1 0-1 1-2 2z"/><path id="path3204" class="fil4" d="m465 583c0-2 1-3 2-4 0 2-1 3-2 4z"/></g><path id="path3206" class="fil2 str0" d="m479 483c1-1 1-2 1-3-1 1-1 1-2 1 1-1 2-3 1-5-1 2-1 2-2 3 0-4-3-1-4-4-2 1-3 2-5 3 0-1-0.54594-1.24495-1-2 0 4-5 3-8 0 2 2 4 3 4 6-2-1-4-1-5-3 1 2 1 3 1 5l-3-3v2c-2-1-4-1-6 0 2 1 2 2 4 2-3 1-5 1-7 3 1 0 1 1 2 1-2 1-4 1-5 3 2-2 5-1 7-1-2 0-5 1-7 3h2c-3 4-8 8-7 14 0-1 1-1 2-2-1 2-1 5-2 7 1-1 2-1 2-1-1 1-2 2-2 3h1c-2 2-3 3-3 5h3c-1 0-1 1-1 2l2-2h-1c1-1 2-2 3-2 1 3-3 5-4 8 4-2 2 7 2 9 1 0 2-1 2-2 0 3-2 5-3 8 2 0 3-1 4-2-1 1-3 3-3 5 2-2 5 6 5 8 0 3-2 7-1 10 2-1 3-2 4-4 0 1 0 2 1 3 0-2 1-3 1-4 1 2 0 4 0 6 1-1 1-2 2-4 1 3-2 5-1 8 0 0 0-1 1-1 0 3 0 6 4 6 1 0 4.79386-1.2712 6-2 1.21068-0.73155 4-3 5-3 3 0 6-3 10-4 3 0 6 2 9-1 0 1 1 1 1 3 0-4 6-2 6-7 1 3 3 5 3 8s8 3 11 3c-3-1-5-1-7-3-1-1-1-5-2-1h1c-4 1-1-2-1-4 0-1-2-3-2-5 2 1 3 1 3 3 1-3-1-6 0-8 2 1 3 1 4 2-1-2-4-4-5-6 2 1 4 1 5 2 0 0 1 0 1-1v1c1-1 3-3 3-4 0-2-6-3-7-5 3 3 6 1 8 2-1-2-2-3-3-6l-1 1c0-1 0-3 1-4 0 1 1 1 2 2 0-2-1-3-1-5 0 0 1 0 1 1-1-2-1-3-2-4h2c-3 0-4-7-8-9 1 2 2 4 4 4-1-5-5-8-8-12 4 3 8 6 11 9-1-1-3-6 0-5-1-2-2-4-3-7-1-1-7-1-8-1 3-1 7-2 10-1-3-3-8-3-11-6 3-1 6 0 9 1 0-1 0-1 2-2-3 0-5-1-8-2 2-1 3-3 4-4-7 0-6-3-7-9-1 0-2 1-4 1v-2c-1 0-2 1-3 1 1-1 0-2 1-3-2 2-5 2-5 4 0-2 0-4 2-5-3 0-4 5-7 4z" fill="#f7da4d" stroke="#000000" stroke-linecap="square"/><path id="path3208" class="fil6" d="m493 498c-5 1 9 23 11 25 1 2 3 5 3 7s-4 5-5 7l-12 18c-5 6-13 7-20 8-4 1-6 2-9 0-4-3-7-7-9-10-5-5-9-15-6-22 3-6 4-10 6-17 0-2 0-5 1-7 2-3 6-5 6-8-1 0-2-1-1-2s4-1 5-1c-2-1-4-1-6-2 3-1 6-1 4-4 2 1 6 3 3 0 5 9-8 16-6 25s5 26 17 23c6-1 6-5 9-10 1-4 5-6 6-11 1-1 0-3 1-5 1-1 2-3 2-5 0-4-9-4-4-9 1-1 3-1 4 0z" fill="#ebb155"/><g id="g323" fill="#000000"><path id="path3210" class="fil3" d="m464 492c-1 0-2-1-3-1 1 0 1 1 1 1-2 0-3 1-4 1 0 1 1 1 1 1h4c-1-1 0-1 1-2z"/><path id="path3212" class="fil3" d="m457 572c-4 0-4-3-4-6-1 0-1 1-1 1-1-3 2-5 1-8-1 2-1 3-2 4 0-2 1-4 0-6 0 1-1 2-1 4-1-1-1-2-1-3-1 2-2 3-4 4-1-3 1-6 1-9 0-2-3-11-5-9 0-2 2-4 3-5-1 1-2 2-4 2 1-3 3-5 3-8 0 1-1 2-2 2 0-2 2-11-2-9 1-3 5-5 4-8-1 0-2 1-3 2h1l-2 2c0-1 0-2 1-2h-3c0-2 1-3 3-5h-1c0-1 1-2 2-3 0 0-1 0-2 1 1-2 1-5 2-7-1 1-2 1-2 2-1-6 4-10 7-14h-2c2-2 5-3 7-3 0-1 0-3 1-4-1 4 2 0 3 0 1 1 1 3 2 4h-4c0 2 2 2 4 3-2 0-2 0-4 1 0 1-1 3-1 3 1 1 3-2 5-2-1 2 0 2 0 3 1 0 2 0 3-1h-1c1-1 2-1 3-1 0 1 0 1 1 2-2 1-4 3-5 4-2 2-3 2-4 5 1-1 1-1 3-2 0 3 0 6-3 8 1 0 2 1 3 2-3 0-6 3-8 6 2-1 5-3 7-4 0 3-5 7-7 9 2.5-2.52824 6-5 8-6-3 4-8 6-11 10 3-2 7-4 10-7-3 4-8 7-11 10 3-2 8-7 12-6-4 1-9 6-8 10 1-4 5-6 6-9 0 2 0 3-1 4-1 2 0 2 0 4 0 0-2 4 0 3 1-1 2-3 3-4-2 5 0 11-2 16 3-4 1-10 4-13 0 1 1 2 1 4v-3c3 1 2 4 2 7 0 6 4 11 2 17 3-6 3-13 2-19-1 3-1 6-1 9-2-5-1-9 2-13 0 6 1 12 3 17-1-3-2-11 1-13 1 2 0 4 0 6 1-3 3-4 3-7 0 3 1 7 1 10 0-3 3-3 4-5s1-5 2-7c2 5 5 13 1 18 2-2 4-6 4-8l-1 1c-1-3 0-7 0-10 2 3 1 8 2 11v-14c0 4 2 8 1 12 0.92469-3 4-7 3-10 0.87919 0.94395 1 1 1 2-1-3-4-5-5-8 2 2 5 4 7 6 0-3-3-6-2-10 1 3 6 6 6 8 2-1 2-3 1-5 0 1 0 1-1 2-2-3-5-6-7-10 3 3 6 4 9 7-1-3-2-5-3-8 1 1 3 2 3 4 1 0 10 0 4-3l0.10274 2.5c-1-4-6.10274-4.5-8.10274-7.5 2 2 6 3 8 4-1-2-4-4-6-6 0 0 0-2-1-2 0-1-2-2-2-3 1 0 3 0 3 1 0-2-1-4-2-6 3 4 7 7 8 12-2 0-3-2-4-4 4 2 5 9 8 9h-2c1 1 1 2 2 4 0-1-1-1-1-1 0 2 1 3 1 5-1-1-2-1-2-2-1 1-1 3-1 4l1-1c1 3 2 4 3 6-2-1-5 1-8-2 1 2 6 3 7 5 0 1-2 3-3 4v-1c0 1-1 1-1 1-1-1-3-1-5-2 1 2 4 4 5 6-1-1-2-1-4-2-1 2 1 5 0 8 0-2-1-2-3-3 0 2 2 4 2 5 0 2-3 5 1 4h-1c1-4 1 0 2 1 2 2 7 0.9366 7 3s-11 0-11-3-2-5-3-8c0 5-6 3-6 7 0-2-1-2-1-3-2 2-4 1-6 1-3 0-5 0-8 2-6 2-10 5-16 7z"/><path id="path3214" class="fil3" d="m481 533c1-1 2-2 2-3 0 0 1 1 1 2-3-1 1 7 1 9 0-3-2-5-4-6 0 2 0 3 1 4 0-1 0-2-1-3 2 2 2 4 1 5 0-1-1-2-2-3v5c-1-1-2-3-2-4-1 0-1 0-1 1l-1-1c-0.74876 0.71949-0.38849 1.85446 0 3l1-1c0 1-1 3-2 4 1-2-1-4-1-6-1 3-1 5-2 8 0-2 1-6 0-8l-1 1v-1c-1 1-1 2-2 4 1-1 1-1 1-2 0 3-1 5-1 8-1-3 0-7-2-10l-1 1v-3c-1 2-2 4-2 6-1-3 1-6 1-9-1 0-1 0-1 1v-2c-2 2-3 3-4 6 0-3 2-5 3-7-1 1-2 1-2 2 0-2 1-5 1-7-1 0-1 0-2 1h1c-1 1-2 2-3 4 0.90536-3.79629 3.16075-7.1667 3.16075-7.1667l-3.16075 3.1667c0-1 1-3 1-4-1 0-1 0-1-2 0-1 0-2 1-3 0 3 3 7 4 9 1 3 2 6 3 8 4 4 14 3 15-3z"/><path id="path3216" class="fil3" d="m466 498c-1 3-3 5-5 7 3 1-3 5-3 7h1c-1 2 0 4 0 6h-1c0-2-1-3 0-5h-1c0-2 2-4 2-7l1 1 1-1c-1 0-2-1-3 0 1-1 1-2 2-3v1c2-1 2-3 2-3 1-1 3-1 4-3z"/><path id="path3218" class="fil3" d="m485 526c4 2 4 5 4 8-1-2-3-5-4-8z"/></g><path id="path3220" class="fil5" d="m493 523c2 0 3 3 3 5-1-2-2-3-3-5" fill="none"/><path id="path3222" class="fil7" d="m453 498c-4 3-6 6-9 9 4-2 6-7 9-9z" fill="#b5660a"/><g id="g331" fill="none"><path id="path3224" class="fil5" d="m453 502c-3 2-8 5-9 9 2-3 6-7 9-9"/><path id="path3226" class="fil5" d="m455 505c-3 1-7 3-8 6 2-2 6-5 8-6"/><path id="path3228" class="fil5" d="m449 517c-3 1-6 4-7 7 2-2 5-6 7-7"/><path id="path3230" class="fil5" d="m451 521c-5 1-7 8-9 11 2-3 5-10 9-11"/></g><path id="path3232" class="fil7" d="m454 535c-4 3-5 9-5 13 3-3 3-9 5-13z" fill="#b5660a"/><g id="g338" fill="none"><path id="path3234" class="fil5" d="m461 546c-4 3-3 12-3 16 1-4 0-14 3-16"/><path id="path3236" class="fil5" d="m452 511c-2 1-4 2-6 4 1-1 4-3 6-4"/><path id="path3238" class="fil5" d="m495 539c3 1 3 7 5 9-1-3-2-7-5-9"/><path id="path3240" class="fil5" d="m489 544c3 2 5 6 6 9-3-2-4-6-6-9"/></g><path id="path3242" class="fil7" d="m475 548c4 1 3 7 3 10-2-3 0-7-3-10z" fill="#b5660a"/><path id="path3244" class="fil8" d="m485 500c0-1-1-1-2-2v3l-3-3v1s1 1 1 0v3c-2-2-7-1-4-5-1 1-1 1-2 1-1-2-4 1-4 3 0-2 1-3 2-4-2 0-3-2-5-3 0-1-1-2-2-2 2-2 6 2 7 0 0-4-7-5-6-9l2 2c0-3-3-4-5-5 2 0 4-1 3-4 0.4585 0.62867 0 1 1 2 1-1 2.81837-1.43548 4.81837-2.43548 5.59939 1.85385 3.99815 5.82804 6.18163 0.43548 1 2-1.36451 3.36727-0.36451 5.36727 0-1 0.34581 0.42908 1.34581-0.57092-1 3-0.9813 6.20365 1.0187 8.20365 0-1 0-4-1-5 2-1 3-4 5-4-2 2-2 4-1 7l2-2c-1 1-1 3-1 4 1 0 1-1 1-1 1 1 1 1 1 3 1-2 3-3 5-2-2 1-3 1-4 3 1-1 3-1 4 0h4c-4 2-7 6-11 8z" fill="#eba12b"/><path id="path3246" class="fil3" d="m493 495c3-2 9 3 13 3-2 1-2 1-2 2-3-1-6-2-9-1 0 1 1 1 1 1-3 1-6-3-9 1 3-1 4 2 6 2 0 0 0-1-1-1 2 0 3 1 5 3-1-1-1-2-1-3 3 0 7 1 10 3-3-1-7 0-10 1 1 0 7 0 8 1 1 3 2 5 3 7-3-1-1 4 0 5-3-2-5-5-8-7 1 1 3 2 5 2-2-2-4-2-6-4h2c0 1 0 1-1 1h4c-2-3-9-3-11-8v3s0-1-1-1c2 3 4 5 5 9-3-5-5-2-1 2h-2c1 2 3 3 4 5-2-1-4-3-5-4 0 2 0 4-1 6v-3c-2 1-2 2-2 4h-4c2-1 3-2 3-5v2c1-2 4-8 0-7 1-2 1-3 1-4 0 1-1 1-1 1 0-2-1-3-1-5l1-1c1 0 2 2 3 4v-2l1 1c-1-2-5-4-5-7-1-3 3-5 6-6z" fill="#000000"/><path id="path3248" class="fil5" d="m490 497c-1 0-2 0-3 1v-2c-1 4-5-4-8-4 1 1 2 1 2 2h-2l3 3v-2c1 2 4 2 3 5 2-1 3-2 5-3" fill="none"/><path id="path3250" class="fil3" d="m470 531c-1 1-3 2-4 1 1 2 5-1 7-1 1 0 7 3 7 1-1 1-6-1-6-3-1-3 6-4 5-6-1 2-3 1-4-1 0 1-1 1 0 2-2 0-5-1-7-1 1 4 5 3 5 8h-3z" fill="#000000"/><path id="path3252" class="fil9" d="m466 499c-1 3-5 6-4 9 0 3 3 2 5 5 0-1 0-1-1-2 2 0 1-1 2 0 0-4 3-4 2-8 0-1-1-8-4-4z" fill="#ffe087"/><path id="path3254" class="fil10" d="m468 522c-2 0-2 3 0 3-3 2-1-5-1-7 0 1-1 3-2 4 1-2 0-3 1-4 0-1 2-3 2-4 0-3-3-3-5-4l-1-1c1-1 2-1 4-1-1-1-1-2 0-3 0 1 1 2 1 3 0-1 1-1 2-2-3 2 0 5 0 7s-3 7-1 9z" fill="#590019"/><path id="path3256" class="fil9" d="m476 500v3l-1-1v4c1-1 1-1 2-3v2h2c0-1 0-1-1-1h3c-2 2 0 2-1 4 0-1-1-1-1-2-2 0-3 2-4 4 0-1 1-1 1-1-1 1-2 2-3 2 0 0 0-1-1-1 0 1-1 1-1 2-1-1-1-2-2-3h2c2-1 2-4 0-6 1 0 2-2 3-4 0 2 1 2 2 1z" fill="#ffe087"/><path id="path3258" class="fil9" d="m487 504c-2-1-3-2-3-3 0 1-1 1-1 2 0-1-1-2-1-2-1 2-2 1-4 2 1 0 2 1 3 0-1 2 1 3 0 5 0 2-2 0-2 3 0 5 6-1 8-1-2-2-2-3-3-4 1 0 1 1 2 1 0-1 0-2 1-3z" fill="#ffe087"/><path id="path3260" class="fil10" d="m487 510c-3 0-6-2-8 1-1 3 2 5 0 8 2 0 3-2 3-4 0 1-1 2-1 2-2-3 1-7 6-7z" fill="#590019"/><g id="g354" fill="none"><path id="path3262" class="fil5" d="m467 511c0-5-5 1 0 0"/><path id="path3264" class="fil5" d="m480 512c0-2 1-2 3-2 0 1-1 2-3 2"/><path id="path3266" class="fil5" d="m466 510c2-2-2-2 0 0"/><path id="path3268" class="fil5" d="m481 512c3-3-2-3 0 0"/></g><path id="path3270" class="fil3" d="m484 510c-6-2-2 6-1 0 0 2-3 2-4 5 0-3 0-7 5-5z" fill="#000000"/><path id="path3272" class="fil3" d="m464 509c1-1 3 0 4 2-2 0-3 0-4-2 1 2 3 2 4 4 0-2-1-7-4-4z" fill="#000000"/><g id="g361" fill="#ffe087"><path id="path3274" class="fil9" d="m462 523c0 2 1 3 2 4 0 2-1 4 1 5 2 2 5-2 7-2 1-3-2-2-3-4 2 1 2 4-1 4s-5-5-6-7z"/><path id="path3276" class="fil9" d="m480 525c-4 1-8 3-4 5 4 3 8 1 8-5 0 1-3 5-5 5-3-1 0-4 1-5z"/><path id="path3278" class="fil9" d="m480 534c-2 0-3 0-4-1 0 1 0 1 1 2-1-1-2-1-2-3v3l-2-2c0 1-1 2-2 3 1-2 0-3 0-4-1 1-1 2-2 3 0-1 0-1 1-2-1 1-3 1-4 1 1 6 12 5 14 0z"/></g><path id="path3280" class="fil3" d="m480 491c-4-2-5-6-5-10-3 2-1 7 1 9-2-1-3-3-4-5 0 2 1 5 2 7-1-2-2-4-3-5 0 2 0 5 1 7-1-1-2-2-4-2 3 4 4 3 7 2 4 0 5 1 8 3-1-1-2-2-2-4 2 1 3 2 4 3 0-2 0-4 2-4-3 0-4-3-4-5-1 2 0 3 0 5-2-1-4-5-4-6 0 2 0 4 1 5z" fill="#000000"/><path id="path3282" class="fil8" d="m536 539c2 3 11 9 9 14-1 3-9 5-11 8-2 2-7 0-9 0 2-2 3-5 3-7-1 3-5 3-6 6-1 2 0 3-3 5-2 1-5 2-8 3-4 1-9 0-13-2-2-1 0-5-1-7 10 4 23 1 30-7 1 1 3 3 2 5 3 0 10-2 11-6s-4-8-4-12z" fill="#eba12b"/><path id="path3284" class="fil3" d="m542 537c-1.6593 0.77403-4 1-6 0 1 1 1 3 2 4 1 3 3 5 5 8 4 7-6 8-10 12 8-6 16-4 25-5 3-1 5 3 8 3 2 0 5 1 5 3 2-5-11-6-14-8-2-1-8-13-9-9-3-3-6-4-10-6 1 0 4.90609-2.42267 4-2z" fill="#000000"/><path id="path3286" class="fil3" d="m524 561c2-2 3-5 4-8 1 3-0.82815 3.58592 2 5 2.00117 1.00059-7 5-6 3z" fill="#000000"/><g id="g370" fill="#ffe087"><path id="path3288" class="fil9" d="m505 522c7 2 16 2 22 2 8 0 14 5 21 6 7 2 15 13 20 19 3 3 5 6 8 7 2 1 6 2 5 5 2 0 4 1 5 2-5-1-10-3-14-7-6-4-11-12-16-17-6-6-15-10-23-11-7-1-16 2-24 1 1-2-2-5-4-7z"/><path id="path3290" class="fil9" d="m485 564h-4c-3 0-7 2-9 3-5 2-10 6-14 6 0 0 1 0 1 1l-1 2c1-1 3-2 5-2-1 1-1 2-2 3 2-1 3-2 5-3v2c3-4 7-7 11-8 3-2 6-1 8-4z"/><path id="path3292" class="fil9" d="m448 561c-4 2-8 2-10 7 2-1 3-3 5-3v4c1-3 5-4 5-8z"/></g></g></g></svg>
